<svg width="46" height="46" viewBox="0 0 46 46" fill="none" xmlns="http://www.w3.org/2000/svg">
<g clip-path="url(#clip0_740_112)">
<path d="M25.4558 12.7279L34.6482 21.9203C34.8358 22.1079 34.9411 22.3622 34.9411 22.6274C34.9411 22.8927 34.8358 23.147 34.6482 23.3345L25.4558 32.5269C25.2683 32.7145 25.014 32.8198 24.7487 32.8198C24.4835 32.8198 24.2292 32.7145 24.0416 32.5269C23.8541 32.3394 23.7487 32.085 23.7487 31.8198C23.7487 31.5546 23.8541 31.3003 24.0416 31.1127L31.5272 23.6271L11.3137 23.628C11.0483 23.628 10.7939 23.5226 10.6062 23.3349C10.4186 23.1473 10.3132 22.8928 10.3132 22.6274C10.3132 22.3621 10.4186 22.1076 10.6062 21.9199C10.7939 21.7323 11.0483 21.6269 11.3137 21.6269L31.5272 21.6278L24.0416 14.1422C23.8541 13.9546 23.7487 13.7003 23.7487 13.4351C23.7487 13.1698 23.8541 12.9155 24.0416 12.7279C24.2292 12.5404 24.4835 12.4351 24.7487 12.4351C25.014 12.4351 25.2683 12.5404 25.4558 12.7279Z" fill="black"/>
</g>
<defs>
<clipPath id="clip0_740_112">
<rect width="32" height="32" fill="white" transform="translate(0 22.6274) rotate(-45)"/>
</clipPath>
</defs>
</svg>
